<svg width="21" height="14" viewBox="0 0 21 14" fill="none" xmlns="http://www.w3.org/2000/svg">
<path d="M6.79544 10.3704L3.82544 13.4815C3.49544 13.7926 3.05544 14 2.57544 14C2.11131 14 1.66619 13.8088 1.338 13.4685C1.00981 13.1281 0.825439 12.6665 0.825439 12.1852V11.9259L1.82544 4.27259C1.92625 3.10658 2.44378 2.02178 3.2764 1.23124C4.10902 0.440695 5.19656 0.00153332 6.32544 0H15.3254C17.6854 0 19.6154 1.87704 19.8254 4.27259L20.8254 11.9259V12.1852C20.8254 12.6665 20.6411 13.1281 20.3129 13.4685C19.9847 13.8088 19.5396 14 19.0754 14C18.5954 14 18.1554 13.7926 17.8254 13.4815L14.8554 10.3704H6.79544ZM5.82544 2.07407V4.14815H3.82544V5.18518H5.82544V7.25926H6.82544V5.18518H8.82544V4.14815H6.82544V2.07407H5.82544ZM15.3254 2.07407C15.1265 2.07407 14.9358 2.15602 14.7951 2.30188C14.6545 2.44774 14.5754 2.64557 14.5754 2.85185C14.5754 3.05813 14.6545 3.25596 14.7951 3.40182C14.9358 3.54768 15.1265 3.62963 15.3254 3.62963C15.5244 3.62963 15.7151 3.54768 15.8558 3.40182C15.9964 3.25596 16.0754 3.05813 16.0754 2.85185C16.0754 2.64557 15.9964 2.44774 15.8558 2.30188C15.7151 2.15602 15.5244 2.07407 15.3254 2.07407ZM13.5754 3.88889C13.3765 3.88889 13.1858 3.97083 13.0451 4.11669C12.9045 4.26256 12.8254 4.46039 12.8254 4.66667C12.8254 4.87295 12.9045 5.07078 13.0451 5.21664C13.1858 5.3625 13.3765 5.44444 13.5754 5.44444C13.7744 5.44444 13.9651 5.3625 14.1058 5.21664C14.2464 5.07078 14.3254 4.87295 14.3254 4.66667C14.3254 4.46039 14.2464 4.26256 14.1058 4.11669C13.9651 3.97083 13.7744 3.88889 13.5754 3.88889ZM17.0754 3.88889C16.8765 3.88889 16.6858 3.97083 16.5451 4.11669C16.4045 4.26256 16.3254 4.46039 16.3254 4.66667C16.3254 4.87295 16.4045 5.07078 16.5451 5.21664C16.6858 5.3625 16.8765 5.44444 17.0754 5.44444C17.2744 5.44444 17.4651 5.3625 17.6058 5.21664C17.7464 5.07078 17.8254 4.87295 17.8254 4.66667C17.8254 4.46039 17.7464 4.26256 17.6058 4.11669C17.4651 3.97083 17.2744 3.88889 17.0754 3.88889ZM15.3254 5.7037C15.1265 5.7037 14.9358 5.78565 14.7951 5.93151C14.6545 6.07737 14.5754 6.2752 14.5754 6.48148C14.5754 6.68776 14.6545 6.88559 14.7951 7.03145C14.9358 7.17731 15.1265 7.25926 15.3254 7.25926C15.5244 7.25926 15.7151 7.17731 15.8558 7.03145C15.9964 6.88559 16.0754 6.68776 16.0754 6.48148C16.0754 6.2752 15.9964 6.07737 15.8558 5.93151C15.7151 5.78565 15.5244 5.7037 15.3254 5.7037Z" fill="white"/>
</svg>