<svg width="19" height="20" viewBox="0 0 19 20" fill="none" xmlns="http://www.w3.org/2000/svg">
<path d="M10.9703 5.16123e-06C12.474 -0.00150219 13.9592 0.327177 15.3179 0.962167C16.6767 1.59716 17.8748 2.52251 18.8254 3.67101L12.4048 10L18.8254 16.329C17.8748 17.4775 16.6767 18.4029 15.3179 19.0378C13.9592 19.6728 12.474 20.0015 10.9703 20C5.36729 20 0.825439 15.523 0.825439 10C0.825439 4.47701 5.36729 5.16123e-06 10.9703 5.16123e-06ZM10.9703 3.00001C10.5667 3.00001 10.1796 3.15804 9.89426 3.43934C9.60888 3.72065 9.44856 4.10218 9.44856 4.50001C9.44856 4.89783 9.60888 5.27936 9.89426 5.56067C10.1796 5.84197 10.5667 6.00001 10.9703 6.00001C11.3739 6.00001 11.7609 5.84197 12.0463 5.56067C12.3317 5.27936 12.492 4.89783 12.492 4.50001C12.492 4.10218 12.3317 3.72065 12.0463 3.43934C11.7609 3.15804 11.3739 3.00001 10.9703 3.00001Z" fill="white"/>
</svg>