<svg width="19" height="18" viewBox="0 0 19 18" fill="none" xmlns="http://www.w3.org/2000/svg">
  <path d="M4.82544 18V16H8.82544V12.9C8.00877 12.7167 7.27977 12.371 6.63844 11.863C5.99711 11.355 5.52611 10.7173 5.22544 9.95C3.97544 9.8 2.92977 9.25433 2.08844 8.313C1.24711 7.37167 0.826106 6.26733 0.825439 5V4C0.825439 3.45 1.02144 2.97933 1.41344 2.588C1.80544 2.19667 2.27611 2.00067 2.82544 2H4.82544V0H14.8254V2H16.8254C17.3754 2 17.8464 2.196 18.2384 2.588C18.6304 2.98 18.8261 3.45067 18.8254 4V5C18.8254 6.26667 18.4044 7.371 17.5624 8.313C16.7204 9.255 15.6748 9.80067 14.4254 9.95C14.1254 10.7167 13.6548 11.3543 13.0134 11.863C12.3721 12.3717 11.6428 12.7173 10.8254 12.9V16H14.8254V18H4.82544ZM4.82544 7.8V4H2.82544V5C2.82544 5.63333 3.00877 6.20433 3.37544 6.713C3.74211 7.22167 4.22544 7.584 4.82544 7.8ZM14.8254 7.8C15.4254 7.58333 15.9088 7.22067 16.2754 6.712C16.6421 6.20333 16.8254 5.63267 16.8254 5V4H14.8254V7.8Z" fill="white"/>
</svg>